HIERARCHY
ROOT Hips
{
	OFFSET 0.000000 0.000000 0.000000
	CHANNELS 6 Xposition Yposition Zposition Xrotation Yrotation Zrotation
	JOINT LeftUpLeg_virtual
	{
		OFFSET 0.000000 0.000000 0.000000
		CHANNELS 3 Xrotation Yrotation Zrotation
		JOINT LeftUpLeg
		{
			OFFSET 10.205400 -3.823500 0.155100
			CHANNELS 3 Xrotation Yrotation Zrotation
			JOINT LeftLeg
			{
				OFFSET 0.708757 -12.982077 0.567790
				CHANNELS 3 Xrotation Yrotation Zrotation
				JOINT LeftFoot
				{
					OFFSET -0.708756 -10.717838 -2.184338
					CHANNELS 3 Xrotation Yrotation Zrotation
					JOINT LeftToeBase
					{
						OFFSET 0.108149 -7.191104 7.560241
						CHANNELS 3 Xrotation Yrotation Zrotation
						JOINT LeftToe_End
						{
							OFFSET 0.070230 0.081724 4.490308
							CHANNELS 3 Xrotation Yrotation Zrotation
							End Site
							{
								OFFSET 0 0 0
							}
						}
					}
				}
			}
		}
	}
	JOINT RightUpLeg_virtual
	{
		OFFSET 0.000000 0.000000 0.000000
		CHANNELS 3 Xrotation Yrotation Zrotation
		JOINT RightUpLeg
		{
			OFFSET -10.205400 -3.823500 0.005500
			CHANNELS 3 Xrotation Yrotation Zrotation
			JOINT RightLeg
			{
				OFFSET -0.708756 -12.982134 0.610632
				CHANNELS 3 Xrotation Yrotation Zrotation
				JOINT RightFoot
				{
					OFFSET 0.708754 -10.717769 -1.945823
					CHANNELS 3 Xrotation Yrotation Zrotation
					JOINT RightToeBase
					{
						OFFSET -0.108140 -7.191069 7.372968
						CHANNELS 3 Xrotation Yrotation Zrotation
						JOINT RightToe_End
						{
							OFFSET -0.070227 0.081735 4.479403
							CHANNELS 3 Xrotation Yrotation Zrotation
							End Site
							{
								OFFSET 0 0 0
							}
						}
					}
				}
			}
		}
	}
	JOINT Spine_virtual
	{
		OFFSET 0.000000 0.000000 0.000000
		CHANNELS 3 Xrotation Yrotation Zrotation
		JOINT Spine
		{
			OFFSET 0.000000 6.876099 0.125700
			CHANNELS 3 Xrotation Yrotation Zrotation
			JOINT Spine1
			{
				OFFSET 0.000000 5.730043 0.104720
				CHANNELS 3 Xrotation Yrotation Zrotation
				JOINT Spine1_split
				{
					OFFSET 0.000000 5.730043 0.104720
					CHANNELS 3 Xrotation Yrotation Zrotation
					JOINT Spine2
					{
						OFFSET 0.000000 5.730043 0.104720
						CHANNELS 3 Xrotation Yrotation Zrotation
						JOINT Neck_virtual
						{
							OFFSET 0.000000 0.000000 0.000000
							CHANNELS 3 Xrotation Yrotation Zrotation
							JOINT Neck
							{
								OFFSET 0.000000 10.314075 0.188496
								CHANNELS 3 Xrotation Yrotation Zrotation
								JOINT Head
								{
									OFFSET 0.000000 7.643700 -2.377400
									CHANNELS 3 Xrotation Yrotation Zrotation
									JOINT HeadTop_End
									{
										OFFSET 0.000000 43.788605 -13.619600
										CHANNELS 3 Xrotation Yrotation Zrotation
										End Site
										{
											OFFSET 0 0 0
										}
									}
								}
							}
						}
						JOINT LeftShoulder_virtual
						{
							OFFSET 0.000000 0.000000 0.000000
							CHANNELS 3 Xrotation Yrotation Zrotation
							JOINT LeftShoulder
							{
								OFFSET 2.196100 4.412489 0.087492
								CHANNELS 3 Xrotation Yrotation Zrotation
								JOINT LeftShoulder_split
								{
									OFFSET 2.196100 4.412489 0.087492
									CHANNELS 3 Xrotation Yrotation Zrotation
									JOINT LeftArm
									{
										OFFSET 8.771219 -2.981674 -0.026999
										CHANNELS 3 Xrotation Yrotation Zrotation
										JOINT LeftForeArm
										{
											OFFSET 8.512804 0.000000 -0.000000
											CHANNELS 3 Xrotation Yrotation Zrotation
											JOINT LeftHand
											{
												OFFSET 18.484802 0.000000 -0.000000
												CHANNELS 3 Xrotation Yrotation Zrotation
												End Site
												{
													OFFSET 0 0 0
												}
											}
										}
									}
								}
							}
						}
						JOINT RightShoulder_virtual
						{
							OFFSET 0.000000 0.000000 0.000000
							CHANNELS 3 Xrotation Yrotation Zrotation
							JOINT RightShoulder
							{
								OFFSET -2.196100 4.412496 0.070690
								CHANNELS 3 Xrotation Yrotation Zrotation
								JOINT RightShoulder_split
								{
									OFFSET -2.196100 4.412496 0.070690
									CHANNELS 3 Xrotation Yrotation Zrotation
									JOINT RightArm
									{
										OFFSET -8.771282 -2.981682 -0.094208
										CHANNELS 3 Xrotation Yrotation Zrotation
										JOINT RightForeArm
										{
											OFFSET -8.494598 0.000000 0.000000
											CHANNELS 3 Xrotation Yrotation Zrotation
											JOINT RightHand
											{
												OFFSET -18.483803 0.000000 0.000001
												CHANNELS 3 Xrotation Yrotation Zrotation
												End Site
												{
													OFFSET 0 0 0
												}
											}
										}
									}
								}
							}
						}
					}
				}
			}
		}
	}
}
MOTION
Frames: 11
Frame Time: 0.03333333
-0.158519 33.303001 0.191263 0.000000 0.000000 0.000000 -6.787576 5.359011 -0.770470 -22.037735 10.200333 16.693799 36.780794 0.637897 5.257349 -7.123504 -11.820784 -10.580929 -3.362468 0.315735 0.143617 0.000000 0.000000 0.000000 -6.997762 7.355070 -0.759789 9.575118 -10.262149 4.096341 20.947453 -8.674046 -7.876628 -20.280018 -18.083496 6.461592 -5.554716 -0.208842 -0.152973 0.000000 0.000000 0.000000 -7.089239 5.307591 -1.049064 4.086708 0.232154 3.000189 1.361784 0.328434 2.988164 0.738156 -0.572054 -0.181760 0.000000 0.000000 0.000000 1.049883 0.681494 2.923054 11.377850 -2.046924 -1.125351 3.603966 -10.064255 -7.252407 0.000000 0.000000 0.000000 0.747351 0.685148 2.749865 1.705229 -15.787135 -12.287730 -0.506755 0.187353 -2.396000 6.012566 -3.461333 -69.342799 -1.613797 0.439421 0.200588 0.000000 0.000000 0.000000 0.906595 0.578676 2.997141 2.584514 8.949279 18.495083 -0.236011 2.812373 -1.062171 26.026822 7.870342 59.418527 1.016609 7.186714 0.735882 0.000000 0.000000 0.000000 
-0.116152 33.366447 0.215006 0.000000 0.000000 0.000000 -6.405222 4.797077 -0.786995 -21.885905 10.476634 16.535367 36.213861 0.312733 5.145035 -7.125953 -10.789237 -10.467939 -3.279747 0.308307 0.126612 0.000000 0.000000 0.000000 -6.623353 6.719832 -0.798395 8.847655 -10.276691 3.767947 20.768659 -8.693177 -7.789718 -19.732253 -17.338176 6.458052 -5.593490 -0.173435 -0.150239 0.000000 0.000000 0.000000 -6.644553 4.793521 -1.063765 3.991635 0.093188 2.990239 1.408150 0.196851 2.976244 0.759250 -0.553512 -0.190550 0.000000 0.000000 0.000000 1.127048 0.529291 2.909960 11.077008 -1.767848 -1.048829 2.733090 -8.809070 -6.703242 0.000000 0.000000 0.000000 0.754635 0.530135 2.705384 1.683129 -16.063102 -12.576675 -0.554581 0.337243 -2.210711 6.350946 -2.378894 -69.519687 -1.569357 0.714486 0.341256 0.000000 0.000000 0.000000 0.992286 0.430620 3.007856 2.655916 8.229426 18.303155 -0.563667 2.688464 -1.215201 28.239865 7.993097 58.546852 1.088457 7.142796 0.631608 0.000000 0.000000 0.000000 
-0.072887 33.432529 0.225588 0.000000 0.000000 0.000000 -6.031099 4.005023 -0.863006 -21.635908 10.732043 16.468349 35.683497 0.017182 4.983695 -7.307258 -9.513479 -10.389104 -3.182018 0.301471 0.098487 0.000000 0.000000 0.000000 -6.250470 5.873300 -0.887842 8.003068 -10.330943 3.405938 20.571787 -8.671214 -7.615142 -19.120409 -16.312700 6.459491 -5.591154 -0.142690 -0.130256 0.000000 0.000000 0.000000 -6.202551 4.063489 -1.134979 3.935038 0.001298 2.985672 1.485962 0.098516 2.977921 0.798097 -0.419672 -0.176574 0.000000 0.000000 0.000000 1.200971 0.405774 2.918628 10.729688 -1.484872 -0.951421 1.856343 -7.504903 -6.141443 0.000000 0.000000 0.000000 0.767492 0.408809 2.666582 1.665513 -16.277919 -12.784306 -0.692815 0.555306 -2.053117 6.665331 -1.506958 -69.789104 -1.546047 0.990210 0.435964 0.000000 0.000000 0.000000 1.079224 0.319667 3.029088 2.706088 7.785163 18.155584 -0.910604 2.469520 -1.281513 28.939733 7.458018 57.981387 1.038346 6.587753 0.644279 0.000000 0.000000 0.000000 
-0.032673 33.498341 0.221230 0.000000 0.000000 0.000000 -5.667823 3.060992 -0.990598 -21.324909 10.930955 16.470146 35.197836 -0.266054 4.800151 -7.652384 -8.063596 -10.344406 -3.107602 0.294564 0.062078 0.000000 0.000000 0.000000 -5.883980 4.884786 -1.022393 7.087641 -10.413191 3.030247 20.349567 -8.627357 -7.365702 -18.448110 -15.062130 6.461919 -5.545766 -0.122255 -0.096471 0.000000 0.000000 0.000000 -5.781137 3.149039 -1.265021 3.906309 -0.047085 2.986724 1.593447 0.029812 2.988477 0.821569 -0.236440 -0.147301 0.000000 0.000000 0.000000 1.272895 0.316321 2.942843 10.325177 -1.205470 -0.827949 0.979986 -6.176493 -5.568232 0.000000 0.000000 0.000000 0.791970 0.322467 2.636303 1.661845 -16.428815 -12.871781 -0.879764 0.717930 -1.918349 7.042129 -1.010678 -70.101052 -1.545613 1.154152 0.460278 0.000000 0.000000 0.000000 1.152187 0.249119 3.058986 2.730359 7.613259 18.089082 -1.124277 2.208307 -1.299903 28.202063 6.540425 57.736614 0.951865 5.764280 0.737450 0.000000 0.000000 0.000000 
0.002904 33.565357 0.209224 0.000000 0.000000 0.000000 -5.315523 2.025563 -1.155090 -20.958825 11.080729 16.515044 34.733786 -0.559851 4.617731 -8.096274 -6.544765 -10.337898 -3.087218 0.287040 0.033366 0.000000 0.000000 0.000000 -5.529730 3.795139 -1.189997 6.135375 -10.512363 2.654949 20.100506 -8.572692 -7.061782 -17.722435 -13.668887 6.489790 -5.525273 -0.116369 -0.057708 0.000000 0.000000 0.000000 -5.399249 2.110484 -1.439333 3.896228 -0.067515 2.991019 1.721460 -0.021145 2.997686 0.830732 -0.085084 -0.135595 0.000000 0.000000 0.000000 1.343839 0.255459 2.968447 9.893587 -0.939553 -0.673528 0.146121 -4.864407 -4.985761 0.000000 0.000000 0.000000 0.835402 0.264072 2.614289 1.685477 -16.507712 -12.832022 -1.092379 0.762909 -1.812628 7.492457 -0.950783 -70.407414 -1.579352 1.135592 0.417926 0.000000 0.000000 0.000000 1.220940 0.207807 3.080710 2.718676 7.622196 18.055513 -1.111362 1.982657 -1.278383 26.472584 5.696030 57.645301 0.877762 5.158456 0.857022 0.000000 0.000000 0.000000 
0.032984 33.631577 0.189087 0.000000 0.000000 0.000000 -4.974549 0.962008 -1.330410 -20.561325 11.193776 16.579808 34.280559 -0.873844 4.439106 -8.544077 -5.047775 -10.361170 -3.087925 0.275621 0.014375 0.000000 0.000000 0.000000 -5.195263 2.672120 -1.373501 5.218031 -10.618779 2.288769 19.816809 -8.530015 -6.736826 -16.958347 -12.210175 6.535287 -5.556145 -0.123782 -0.020246 0.000000 0.000000 0.000000 -5.064444 1.014153 -1.627650 3.894331 -0.080293 2.998144 1.857892 -0.069860 2.997023 0.798780 -0.027538 -0.121289 0.000000 0.000000 0.000000 1.415943 0.209819 2.979408 9.473466 -0.685435 -0.497059 -0.615673 -3.590836 -4.394011 0.000000 0.000000 0.000000 0.906864 0.219164 2.595870 1.732977 -16.540867 -12.687815 -1.297823 0.713782 -1.738246 7.958869 -1.282783 -70.672869 -1.636721 0.981034 0.333406 0.000000 0.000000 0.000000 1.288072 0.180218 3.081826 2.677734 7.768579 18.007597 -0.870679 1.869820 -1.288134 24.303838 5.458840 57.538682 0.864596 5.135986 0.938695 0.000000 0.000000 0.000000 
0.058026 33.696968 0.169817 0.000000 0.000000 0.000000 -4.652936 -0.074659 -1.499252 -20.146541 11.300830 16.640740 33.796493 -1.202058 4.271877 -8.932592 -3.636257 -10.393823 -3.069145 0.262216 0.004565 0.000000 0.000000 0.000000 -4.882548 1.574086 -1.555551 4.384280 -10.715998 1.945513 19.503236 -8.522427 -6.421343 -16.222509 -10.766507 6.530152 -5.574027 -0.139160 0.013003 0.000000 0.000000 0.000000 -4.777454 -0.071670 -1.811892 3.891858 -0.103426 3.005525 1.985640 -0.126051 2.982039 0.778829 -0.069092 -0.130680 0.000000 0.000000 0.000000 1.491662 0.167350 2.965776 9.100302 -0.444847 -0.307892 -1.278956 -2.384376 -3.798795 0.000000 0.000000 0.000000 1.000916 0.172265 2.571905 1.793264 -16.567034 -12.490730 -1.450653 0.605925 -1.669251 8.348136 -1.926808 -70.872952 -1.708723 0.761270 0.237089 0.000000 0.000000 0.000000 1.365470 0.150949 3.064119 2.620996 8.010575 17.911020 -0.582065 1.787627 -1.316218 22.131392 6.194779 57.353064 0.934024 5.687595 0.953942 0.000000 0.000000 0.000000 
0.078270 33.761250 0.152091 0.000000 0.000000 0.000000 -4.353693 -1.051346 -1.656584 -19.722982 11.431397 16.680992 33.241264 -1.512714 4.116247 -9.250928 -2.347750 -10.411812 -2.985424 0.248678 -0.003793 0.000000 0.000000 0.000000 -4.592823 0.540896 -1.731154 3.660169 -10.792444 1.633386 19.127894 -8.562459 -6.132897 -15.542562 -9.396108 6.448341 -5.538774 -0.155301 0.039937 0.000000 0.000000 0.000000 -4.526072 -1.097631 -1.974173 3.885181 -0.138758 3.014930 2.101741 -0.190320 2.953851 0.806564 -0.136044 -0.131426 0.000000 0.000000 0.000000 1.561464 0.120355 2.927285 8.791533 -0.221281 -0.121639 -1.843886 -1.267717 -3.213727 0.000000 0.000000 0.000000 1.116439 0.117153 2.540723 1.853970 -16.603707 -12.311070 -1.566668 0.492859 -1.634112 8.566022 -2.795301 -70.991149 -1.782804 0.626878 0.162056 0.000000 0.000000 0.000000 1.461650 0.113069 3.028002 2.558227 8.323635 17.751073 -0.354605 1.755781 -1.341051 20.251659 7.863376 57.147520 1.033386 6.669361 0.886669 0.000000 0.000000 0.000000 
0.095153 33.823189 0.134770 0.000000 0.000000 0.000000 -4.080430 -1.931375 -1.800659 -19.314510 11.599297 16.690146 32.598765 -1.772671 3.963603 -9.490152 -1.204528 -10.404166 -2.852816 0.238509 -0.017015 0.000000 0.000000 0.000000 -4.325659 -0.381289 -1.896946 3.063467 -10.833316 1.364733 18.699579 -8.640086 -5.882777 -14.888556 -8.141611 6.313784 -5.491175 -0.166349 0.055492 0.000000 0.000000 0.000000 -4.291425 -2.026687 -2.110544 3.873005 -0.177945 3.030432 2.197501 -0.257245 2.917465 0.843451 -0.173911 -0.122272 0.000000 0.000000 0.000000 1.613900 0.067308 2.872077 8.540825 -0.018015 0.046926 -2.336522 -0.267853 -2.641642 0.000000 0.000000 0.000000 1.232655 0.054740 2.503404 1.890323 -16.677912 -12.203074 -1.651003 0.395125 -1.597935 8.557378 -3.859705 -71.011756 -1.835085 0.676094 0.129712 0.000000 0.000000 0.000000 1.563978 0.069033 2.981827 2.498587 8.745533 17.553866 -0.346457 1.680729 -1.323916 18.700409 10.272920 56.985498 1.133754 7.734691 0.748621 0.000000 0.000000 0.000000 
0.111945 33.882057 0.119237 0.000000 0.000000 0.000000 -3.833623 -2.714245 -1.937934 -18.949349 11.788776 16.671841 31.907311 -1.954309 3.822442 -9.630782 -0.228594 -10.366333 -2.726772 0.232755 -0.031258 0.000000 0.000000 0.000000 -4.075023 -1.192778 -2.054633 2.568825 -10.839800 1.134041 18.220921 -8.730723 -5.662295 -14.183538 -7.018229 6.193829 -5.503555 -0.170641 0.055820 0.000000 0.000000 0.000000 -4.061285 -2.839411 -2.226501 3.852507 -0.207251 3.049322 2.275818 -0.314175 2.875737 0.864033 -0.151832 -0.122588 0.000000 0.000000 0.000000 1.649647 0.017941 2.813747 8.330054 0.154823 0.190570 -2.777540 0.575570 -2.086753 0.000000 0.000000 0.000000 1.334492 -0.002540 2.464116 1.891615 -16.782704 -12.198104 -1.736846 0.330915 -1.545485 8.302317 -5.155887 -70.916625 -1.864672 0.898637 0.142968 0.000000 0.000000 0.000000 1.659578 0.027433 2.932019 2.441777 9.272541 17.334200 -0.551184 1.582787 -1.233993 17.338744 13.102262 56.945111 1.173696 8.735740 0.594509 0.000000 0.000000 0.000000 
0.129800 33.938271 0.098696 0.000000 0.000000 0.000000 -3.611651 -3.395941 -2.065802 -18.653798 11.971902 16.626559 31.235688 -2.035609 3.696360 -9.660039 0.563187 -10.277309 -2.614586 0.230083 -0.049652 0.000000 0.000000 0.000000 -3.839850 -1.899408 -2.206291 2.176206 -10.821319 0.947473 17.658585 -8.806710 -5.471475 -13.400609 -6.025791 6.153412 -5.606233 -0.169327 0.047725 0.000000 0.000000 0.000000 -3.828396 -3.528015 -2.329549 3.826227 -0.209612 3.070149 2.342261 -0.351248 2.830262 0.847804 -0.070807 -0.110785 0.000000 0.000000 0.000000 1.667154 -0.019591 2.758677 8.135063 0.293644 0.306386 -3.195161 1.239975 -1.542781 0.000000 0.000000 0.000000 1.411737 -0.043365 2.430108 1.848253 -16.893597 -12.299310 -1.849587 0.284326 -1.501638 7.836549 -6.717638 -70.706282 -1.864106 1.206122 0.193728 0.000000 0.000000 0.000000 1.735124 -0.003648 2.874439 2.388315 9.902054 17.098217 -0.823252 1.513040 -1.096822 16.069748 16.089680 56.999431 1.142920 9.634920 0.456897 0.000000 0.000000 0.000000 
